<svg width="512" height="512" viewBox="0 0 512 512" fill="none" xmlns="http://www.w3.org/2000/svg">
  <rect width="512" height="512" rx="128" fill="#4338CA"/>
  <path d="M256 128C194.144 128 144 178.144 144 240C144 301.856 194.144 352 256 352C317.856 352 368 301.856 368 240C368 178.144 317.856 128 256 128ZM159.68 240C159.68 186.816 202.816 143.68 256 143.68C309.184 143.68 352.32 186.816 352.32 240C352.32 293.184 309.184 336.32 256 336.32C202.816 336.32 159.68 293.184 159.68 240Z" fill="white"/>
  <path d="M303.872 208.576C303.872 199.328 298.496 190.272 287.936 184.32C277.376 178.368 262.272 176 256 176C249.728 176 234.624 178.368 224.064 184.32C213.504 190.272 208.128 199.328 208.128 208.576C208.128 216.384 211.84 223.328 220.448 228.576L209.792 304H302.208L291.552 228.576C300.16 223.328 303.872 216.384 303.872 208.576ZM256 192C271.488 192 287.872 198.208 287.872 208.576C287.872 218.944 271.488 224.16 256 224.16C240.512 224.16 224.128 218.944 224.128 208.576C224.128 198.208 240.512 192 256 192Z" fill="white"/>
  <path d="M256 368C243.2 368 232 379.2 232 392C232 404.8 243.2 416 256 416C268.8 416 280 404.8 280 392C280 379.2 268.8 368 256 368Z" fill="white"/>
</svg> 