<svg width="500" height="400" viewBox="0 0 500 400" fill="none" xmlns="http://www.w3.org/2000/svg">
  <!-- 背景元素 -->
  <circle cx="250" cy="200" r="150" fill="#EBF4FF" />
  
  <!-- 书本 -->
  <rect x="170" y="130" width="160" height="200" rx="8" fill="#3B82F6" />
  <rect x="180" y="140" width="140" height="180" rx="4" fill="white" />
  
  <!-- 文字线条 - 左页 -->
  <rect x="195" y="165" width="50" height="5" rx="2.5" fill="#E5E7EB" />
  <rect x="195" y="180" width="40" height="5" rx="2.5" fill="#E5E7EB" />
  <rect x="195" y="195" width="45" height="5" rx="2.5" fill="#E5E7EB" />
  <rect x="195" y="210" width="35" height="5" rx="2.5" fill="#E5E7EB" />
  <rect x="195" y="225" width="48" height="5" rx="2.5" fill="#E5E7EB" />
  <rect x="195" y="240" width="42" height="5" rx="2.5" fill="#E5E7EB" />
  <rect x="195" y="255" width="38" height="5" rx="2.5" fill="#E5E7EB" />
  <rect x="195" y="270" width="46" height="5" rx="2.5" fill="#E5E7EB" />
  
  <!-- 文字线条 - 右页 -->
  <rect x="255" y="165" width="50" height="5" rx="2.5" fill="#E5E7EB" />
  <rect x="255" y="180" width="40" height="5" rx="2.5" fill="#E5E7EB" />
  <rect x="255" y="195" width="45" height="5" rx="2.5" fill="#E5E7EB" />
  <rect x="255" y="210" width="35" height="5" rx="2.5" fill="#E5E7EB" />
  <rect x="255" y="225" width="48" height="5" rx="2.5" fill="#E5E7EB" />
  <rect x="255" y="240" width="42" height="5" rx="2.5" fill="#E5E7EB" />
  <rect x="255" y="255" width="38" height="5" rx="2.5" fill="#E5E7EB" />
  <rect x="255" y="270" width="46" height="5" rx="2.5" fill="#E5E7EB" />
  
  <!-- 书脊 -->
  <rect x="250" y="130" width="2" height="200" fill="#2563EB" />
  
  <!-- 句子气泡 -->
  <ellipse cx="380" cy="120" rx="70" ry="40" fill="#FBBF24" />
  <path d="M325 145L340 120L355 145" fill="#FBBF24" />
  
  <!-- 句子文本 -->
  <text x="380" y="125" font-family="Arial" font-size="12" text-anchor="middle" fill="#4B5563">Hello, world!</text>
  
  <!-- 人物简图 -->
  <circle cx="120" cy="150" r="30" fill="#F87171" />
  <rect x="110" y="185" width="20" height="60" rx="8" fill="#F87171" />
  <rect x="90" y="200" width="30" height="10" rx="5" fill="#F87171" />
  <rect x="120" y="200" width="30" height="10" rx="5" fill="#F87171" />
  <rect x="110" y="250" width="8" height="40" rx="4" fill="#F87171" />
  <rect x="122" y="250" width="8" height="40" rx="4" fill="#F87171" />
  
  <!-- 学习元素 -->
  <circle cx="420" cy="280" r="25" fill="#A78BFA" />
  <path d="M410 280L420 290L430 270" stroke="white" stroke-width="3" stroke-linecap="round" stroke-linejoin="round" />
</svg> 